<svg xmlns="http://www.w3.org/2000/svg" width="120" height="65" viewBox="0 0 120 65" fill="none"><path d="M120 0H0V65H120V0Z" fill="#F5F5F5"></path><path d="M120 0H0V65H120V0Z" fill="white"></path><path d="M9.60004 18.5146V37.5813H16.2461V28.8236H19.773L25.2864 37.5813H32.8819L26.3472 27.7845C26.379 27.7708 26.4107 27.7569 26.4422 27.7429C28.0934 26.9975 29.3869 25.9665 30.3226 24.6497C31.2582 23.333 31.7261 21.8299 31.7261 20.1405C31.7261 18.451 31.2582 16.9604 30.3226 15.6685C29.4144 14.3517 28.1485 13.3331 26.5248 12.6126C24.9011 11.8673 23.0435 11.4946 20.952 11.4946H20.233L22.633 14.3979L20.233 16.9728H20.6218C21.8602 16.9728 22.8509 17.2709 23.5939 17.8672C24.3645 18.4635 24.7498 19.2212 24.7498 20.1405C24.7498 20.7367 24.5709 21.2833 24.2131 21.7802C23.8829 22.2522 23.415 22.6249 22.8096 22.8982C22.2042 23.1715 21.5162 23.3081 20.7456 23.3081H16.2461V18.5146H9.60004Z" fill="#351EBF"></path><path fill-rule="evenodd" clip-rule="evenodd" d="M47.0532 44.1029C49.5024 44.9475 52.1856 45.37 55.1031 45.37C56.3136 45.37 57.6624 45.159 59.1485 44.7365C60.6619 44.3391 61.9968 43.8174 63.1527 43.1713L60.5933 39.9291C59.9328 40.3514 59.0794 40.6868 58.0339 40.9353C57.0154 41.2086 56.0386 41.3452 55.1031 41.3452C52.8187 41.3452 50.7274 41.0222 48.8285 40.3763C46.9294 39.7303 45.2782 38.8235 43.8747 37.6558C42.4987 36.4881 41.4254 35.1092 40.6548 33.5192C39.9118 31.9043 39.5403 30.1279 39.5403 28.1901C39.5403 26.2522 39.9118 24.4758 40.6548 22.8609C41.4254 21.246 42.4987 19.8423 43.8747 18.6498C45.2782 17.4573 46.9294 16.5504 48.8285 15.9293C50.7274 15.2834 52.8187 14.9604 55.1031 14.9604C57.1392 14.9604 59.0107 15.2834 60.7171 15.9293C62.4231 16.5504 63.8957 17.4573 65.1341 18.6498C66.3725 19.8423 67.3354 21.246 68.0237 22.8609C68.7115 24.4758 69.0557 26.2522 69.0557 28.1901C69.0557 29.4323 68.8906 30.5379 68.5603 31.5068C68.2301 32.4509 67.7895 33.1962 67.2394 33.7428C66.6888 34.2894 66.0423 34.5627 65.2992 34.5627C64.776 34.5627 64.3498 34.4509 64.0195 34.2273C63.6893 34.0037 63.5242 33.5813 63.5242 32.9602V19.7305H58.3642L58.4055 21.4305C58.0008 21.0876 57.5607 20.7818 57.0845 20.5131C55.7635 19.743 54.2362 19.3579 52.5024 19.3579C50.8786 19.3579 49.4338 19.743 48.168 20.5131C46.9294 21.2585 45.9524 22.2895 45.2369 23.6063C44.5489 24.923 44.2049 26.451 44.2049 28.1901C44.2049 29.9043 44.5489 31.4323 45.2369 32.7739C45.9524 34.1155 46.9294 35.1714 48.168 35.9415C49.4338 36.6869 50.8786 37.0595 52.5024 37.0595C54.2362 37.0595 55.7635 36.6869 57.0845 35.9415C57.7522 35.5522 58.3493 35.0899 58.8763 34.5546C59.0069 34.9938 59.2075 35.4065 59.4787 35.7925C60.0288 36.5378 60.7719 37.1216 61.7079 37.544C62.6434 37.9415 63.6754 38.1403 64.8039 38.1403C66.5098 38.1403 68.0237 37.7179 69.3447 36.8732C70.6656 36.0036 71.6976 34.8235 72.4407 33.3329C73.1837 31.8422 73.5552 30.1279 73.5552 28.1901C73.5552 25.6559 73.1011 23.3454 72.193 21.2585C71.3122 19.1467 70.0464 17.3206 68.3952 15.7803C66.744 14.2399 64.7899 13.0474 62.5335 12.2027C60.2765 11.358 57.8136 10.9356 55.1443 10.9356C52.1995 10.9356 49.489 11.358 47.0119 12.2027C44.5627 13.0474 42.4436 14.2399 40.6548 15.7803C38.8661 17.3206 37.4763 19.1467 36.4855 21.2585C35.5224 23.3454 35.0407 25.6559 35.0407 28.1901C35.0407 30.6994 35.5224 32.9975 36.4855 35.0844C37.4763 37.1713 38.8661 38.985 40.6548 40.5253C42.4711 42.0657 44.604 43.2582 47.0532 44.1029ZM58.5835 28.735C58.5207 29.3331 58.3512 29.872 58.0752 30.3515C57.745 30.9726 57.277 31.4571 56.6717 31.8049C56.0659 32.1528 55.3781 32.3267 54.6077 32.3267C53.7269 32.3267 52.9565 32.1528 52.296 31.8049C51.6355 31.4571 51.1123 30.9602 50.7274 30.3143C50.3419 29.6683 50.1495 28.9478 50.1495 28.1528C50.1495 27.3329 50.328 26.6249 50.6861 26.0286C51.0437 25.4075 51.5251 24.9354 52.1309 24.6125C52.7635 24.2646 53.4931 24.0907 54.3187 24.0907C55.1443 24.0907 55.8735 24.2646 56.5066 24.6125C57.1671 24.9603 57.6759 25.4448 58.0339 26.0659C58.2951 26.4706 58.4679 26.9269 58.5519 27.4348L58.5835 28.735Z" fill="#351EBF"></path><path d="M78.8045 15.7057C79.5475 16.3765 80.4144 16.7119 81.4051 16.7119C82.4232 16.7119 83.304 16.3765 84.0471 15.7057C84.7901 15.0349 85.1616 14.2523 85.1616 13.3579C85.1616 12.4387 84.7901 11.6437 84.0471 10.9729C83.304 10.3021 82.4232 9.96667 81.4051 9.96667C80.4144 9.96667 79.5475 10.3021 78.8045 10.9729C78.0615 11.6437 77.6899 12.4387 77.6899 13.3579C77.6899 14.2523 78.0615 15.0349 78.8045 15.7057Z" fill="#351EBF"></path><path d="M72.0758 44.3638C73.4515 45.1837 75.0341 45.5936 76.823 45.5936C79.3272 45.5936 81.2534 44.9848 82.6022 43.7675C83.9506 42.5502 84.625 40.8483 84.625 38.662V18.9479H78.1853V38.2521C78.1853 39.544 77.6621 40.1899 76.6166 40.1899C76.3411 40.1899 76.0387 40.1278 75.7085 40.0036C75.3782 39.8794 75.048 39.7303 74.7178 39.5564L72.0758 44.3638Z" fill="#351EBF"></path><path d="M102.439 35.2025L102.696 37.5813H108.765V18.9479H102.325V28.7863C102.325 30.0534 102.009 31.0099 101.376 31.6559C100.742 32.277 99.8069 32.5875 98.5685 32.5875C97.9354 32.5627 97.3848 32.4136 96.9173 32.1403C96.4493 31.867 96.0917 31.4323 95.844 30.836C95.5963 30.2397 95.4725 29.4571 95.4725 28.4882V18.9479H89.0328V29.5689C89.0328 31.5068 89.3078 33.0968 89.8584 34.3391C90.4363 35.5813 91.2893 36.513 92.4178 37.1341C93.5458 37.7303 94.9358 38.0285 96.587 38.0285C98.1005 38.0285 99.4214 37.6682 100.55 36.9477C101.278 36.4941 101.907 35.9123 102.439 35.2025Z" fill="#351EBF"></path><path d="M9.91296 11.7979V16.5646H17.833L19.993 14.3979L17.833 11.7979H9.91296Z" fill="#FBBC04" stroke="#FBBC04"></path><path fill-rule="evenodd" clip-rule="evenodd" d="M111.36 48.5333H6.23999V59.3667H111.36V48.5333ZM11.616 57.1913C11.9168 57.2663 12.2304 57.304 12.5568 57.304C13.0816 57.304 13.5296 57.2316 13.9008 57.0873C14.272 56.937 14.5536 56.7264 14.7456 56.4547C14.944 56.183 15.0432 55.8567 15.0432 55.4753C15.0432 55.0537 14.8896 54.678 14.5824 54.3487C14.2816 54.0137 13.8592 53.7853 13.3152 53.664L12.3648 53.4473C12.1536 53.401 11.9872 53.3316 11.8656 53.2393C11.744 53.141 11.6832 53.0196 11.6832 52.8753C11.6832 52.6673 11.7568 52.5083 11.904 52.3987C12.0576 52.289 12.2688 52.234 12.5376 52.234C12.8064 52.234 13.024 52.2977 13.1904 52.4247C13.3632 52.5516 13.4752 52.6933 13.5264 52.8493L15.0432 52.442C14.9088 52.13 14.7264 51.87 14.496 51.662C14.272 51.454 14 51.298 13.68 51.194C13.36 51.0844 12.9856 51.0293 12.5568 51.0293C11.776 51.0293 11.1712 51.194 10.7424 51.5233C10.3136 51.847 10.0992 52.3003 10.0992 52.884C10.0992 53.1843 10.1664 53.453 10.3008 53.69C10.4416 53.921 10.6336 54.1177 10.8768 54.2793C11.1264 54.441 11.4176 54.5597 11.7504 54.6347L12.7008 54.8513C12.9312 54.909 13.1072 54.993 13.2288 55.1027C13.3568 55.2123 13.4208 55.3397 13.4208 55.484C13.4208 55.669 13.3312 55.819 13.152 55.9347C12.9792 56.0504 12.7616 56.105 12.4992 56.0993C12.2304 56.0937 12.0064 56.03 11.8272 55.9087C11.6544 55.7817 11.5328 55.6344 11.4624 55.4667L9.93599 55.8567C9.97439 56.053 10.0704 56.238 10.224 56.4113C10.3776 56.579 10.5728 56.732 10.8096 56.8707C11.0528 57.0037 11.3216 57.1103 11.616 57.1913ZM20.6452 51.1333V57.2H25.0708V55.9173H22.1908V54.7647H24.562V53.5253H22.1908V52.416H25.0228V51.1333H20.6452ZM32.222 56.9053C32.7531 57.171 33.3644 57.304 34.0556 57.304C34.7403 57.304 35.3451 57.171 35.87 56.9053C36.3947 56.6336 36.8043 56.264 37.0988 55.796C37.3995 55.3224 37.55 54.782 37.55 54.1753C37.55 53.563 37.3995 53.0227 37.0988 52.5547C36.7979 52.081 36.3819 51.711 35.8508 51.4453C35.3259 51.1736 34.7211 51.038 34.0364 51.038C33.3515 51.038 32.7435 51.1736 32.2124 51.4453C31.6875 51.711 31.2747 52.081 30.974 52.5547C30.6731 53.0227 30.5228 53.563 30.5228 54.1753C30.5228 54.782 30.6731 55.3224 30.974 55.796C31.2747 56.264 31.6907 56.6336 32.222 56.9053ZM35.054 55.7873C34.766 55.9433 34.4331 56.0213 34.0556 56.0213C33.6779 56.0213 33.3419 55.9433 33.0476 55.7873C32.7531 55.6313 32.5227 55.4147 32.3564 55.1373C32.1899 54.8544 32.1068 54.5337 32.1068 54.1753C32.1068 53.8113 32.1899 53.4907 32.3564 53.2133C32.5227 52.9304 32.75 52.7107 33.038 52.5547C33.326 52.393 33.6587 52.312 34.0364 52.312C34.4139 52.312 34.7468 52.393 35.0348 52.5547C35.3228 52.7107 35.5499 52.9304 35.7164 53.2133C35.8827 53.4907 35.966 53.8113 35.966 54.1753C35.966 54.5337 35.8859 54.8544 35.726 55.1373C35.5659 55.4147 35.342 55.6313 35.054 55.7873ZM49.9565 51.1333V57.2H54.3821V55.9173H51.5021V54.7647H53.8733V53.5253H51.5021V52.416H54.3341V51.1333H49.9565ZM62.0976 54.0791L59.6424 57.2H61.5048L62.9525 55.2275L64.3944 57.2H66.2568L63.8107 54.0791L66.1992 51.1333H64.356L62.9525 52.9668L61.5432 51.1333H59.7L62.0976 54.0791ZM71.6131 51.1333V57.2H73.1587V55.2847H74.3011C74.7811 55.2847 75.2069 55.195 75.5779 55.016C75.9494 54.837 76.2374 54.5913 76.4419 54.2793C76.6531 53.9617 76.7587 53.6033 76.7587 53.2047C76.7587 52.7943 76.6502 52.4364 76.4323 52.13C76.2211 51.818 75.9269 51.5753 75.5491 51.402C75.1718 51.223 74.7398 51.1333 74.2531 51.1333H71.6131ZM74.2627 54.002H73.1587V52.4073H74.2147C74.5027 52.4073 74.7331 52.4823 74.9059 52.6327C75.0854 52.777 75.1747 52.9676 75.1747 53.2047C75.1747 53.4417 75.0917 53.635 74.9251 53.7853C74.759 53.9296 74.5382 54.002 74.2627 54.002ZM82.1184 51.1333V57.2H86.544V55.9173H83.664V54.7647H86.0352V53.5253H83.664V52.416H86.496V51.1333H82.1184ZM92.3606 51.1333V57.2H93.9062V55.1633H94.7265L96.0086 57.2H97.775L96.2553 54.9215C96.2625 54.9185 96.2702 54.9155 96.2774 54.912C96.6614 54.7387 96.9619 54.499 97.1798 54.1927C97.3973 53.8863 97.5062 53.537 97.5062 53.144C97.5062 52.751 97.3973 52.4043 97.1798 52.104C96.9686 51.7976 96.6739 51.561 96.2966 51.3933C95.9189 51.22 95.4869 51.1333 95.0006 51.1333H92.3606ZM94.9526 53.8807H93.9062V52.4073H94.9238C95.2118 52.4073 95.4422 52.4767 95.615 52.6153C95.7941 52.754 95.8838 52.9304 95.8838 53.144C95.8838 53.2827 95.8421 53.4096 95.759 53.5253C95.6822 53.635 95.5733 53.7216 95.4326 53.7853C95.2915 53.849 95.1317 53.8807 94.9526 53.8807ZM104.559 52.416V57.2H106.095V52.416H108.053V51.1333H102.6V52.416H104.559Z" fill="#10015D"></path></svg>